<svg id="Слой_1" data-name="Слой 1" xmlns="http://www.w3.org/2000/svg" xmlns:xlink="http://www.w3.org/1999/xlink" viewBox="0 0 2580.41 667.42">
  <defs>
    <style>
      .cls-1 {
        fill: none;
      }

      .cls-2 {
        clip-path: url(#clip-path);
      }

      .cls-3 {
        fill: #578990;
      }

      .cls-4 {
        fill: #1a535c;
      }
    </style>
    <clipPath id="clip-path" transform="translate(869.96 35.27)">
      <rect class="cls-1" x="-1116" y="-35.11" width="2826.56" height="913.28"/>
    </clipPath>
  </defs>
  <title>logo</title>
  <g>
    <g class="cls-2">
      <path class="cls-3" d="M686,0.6a60.74,60.74,0,0,0,9.42,4.26c-0.36-1.6-1.6-3-3.72-4.44a49.66,49.66,0,0,0-10-3.73c0.36,1.24,2,2.49,4.26,3.91h0ZM423,437c-6.39-4.62-12.43-9.59-18.29-14.74-2.49-2.13-4.8-4.09-7.28-6.22a16.14,16.14,0,0,1-1.42-2.31c0.53-1.42-.71-3-2.67-4.8a56.54,56.54,0,0,0-7.63-5.33c-4.8-5-6.57-5.86-9.06-4.44,2.13,2.49,4.26,5,6.22,7.1,1.78,2.66,3.38,5,5.33,7.46-4.08-4.62-7.63-9.59-11.54-14.56-2.66-3-5.15-3.55-6.22-2.49l3.74,5.86c1.41,2,2.84,3.73,4.08,5.68,0.36,2.84-1.78,2.13-2.31,2.49,1.07,1.24,2,2.31,3,3.55s2.12,2.31,3.37,3.55c2.31,2.31,4.63,4.8,7.11,7.1l7.64,7.1c2.67,2.31,5.33,4.62,8.17,6.93a22.93,22.93,0,0,0,3.37,2.49c1.25,0.71,2.31,1.6,3.56,2.31,2.3-.71,4.61-1.6,6.92-2.49a7,7,0,0,1-1.23-1.07c2.12-1.24,3.55-2.13,5.15-3.2h0Zm-30.9-16.69c-1.6-2-3.2-4.08-4.8-6,2.13,2.31,4.09,5.15,6.57,7.46a21.39,21.39,0,0,0,2.13,2,10,10,0,0,1-3.9-3.37h0Zm30.72,23.8c0.53,1.6,2.13,3.2,4.61,5.15,1.25,0.89,2.85,1.78,4.61,2.84a59.18,59.18,0,0,0,6.57,3c0.89-.53-1.59-2.66-2.3-4.09-3.2-2.13-6.57-4.79-13.5-6.93h0Zm-21-96.26c1.07,2.31,2.31,4.62,3.2,6.75,0.53,0.89,1.07,1.6,1.41,2.13,1.42,2,3,4.09,4.63,6.22,10.65,5.15-4.63-9.06-5.15-13.85-0.89.71-3.38-2.84-4.09-1.24h0ZM668.77-10.59a45.87,45.87,0,0,0-10.12-6.22c-3.2-1.24-6-1.78-8-1.07,0.89,2.84,7.64,4.8,18.11,7.28" transform="translate(869.96 35.27)"/>
      <path class="cls-3" d="M848.85,246.39c-0.18-1.6-.53-3.37-0.71-5.68s-0.18-5-.18-8.35c-0.17-.18-0.35-0.18-0.53-0.36-0.88-.35-1.77-0.89-2.65-1.24-0.36-3.2-.71-5.86-1.07-8.7-2,.53-3.91,1.42-5.86,2.13a15.68,15.68,0,0,0-4.08,0c-1.06-.53-1.6-0.71-2.67,5.15-1.06,1.42-2.14,3.2-3.2,4.8-1.24,0-2.67-.18-4.08-0.18-2.14-2-4.62-3.91-6.94-6-0.7-2.49-1.41-3-1.77-5a34.64,34.64,0,0,0-3.91-1.42,24.21,24.21,0,0,0-5.14-.35c-0.89,0-2.67-2.13-2.85.35a43.81,43.81,0,0,0-4.44,3.91,5.07,5.07,0,0,0-1.24-1.78A213,213,0,0,1,788.47,288c0.36,2.31-3.73,7.28-1.06,7.1-1.77,11.72-6.58,21.67-11.18,32.15,3,1.24,1.59,4.26-.89,7.46-2.3,3.2-5.33,6.75-5,9.77-2.85.89-4.26,3.91-6,7.1s-3.55,6.93-6.93,8.53a144.84,144.84,0,0,1-28.76,32.5,79,79,0,0,1-8.88,8.35c-1.6,1.24-3.2,2.49-5,3.73a52.16,52.16,0,0,1-5.14,3.55,113.42,113.42,0,0,1-11,6.57l-5.86,3.2c-2,1.07-4.08,2.13-6.21,3.2,0.18,1.42-2.85,2.31-3.2,4.08-3.2,1.6-6.58,3-9.94,4.62-3.38,1.42-6.93,2.84-10.3,4.26-2.85,1.07-5.86,2.13-9.06,3.38-3.2,1.07-6.74,2-10.12,3a197.46,197.46,0,0,1-20.24,4.26c-1.06,1.42-5.86.53-5.68,3.73a16.11,16.11,0,0,0-6-.71,13.92,13.92,0,0,0-3.56.71,21.15,21.15,0,0,0-3.91,1.42c-2.84-.89-9.41,1.07-9.23-1.24-1.77.18-5.5-.35-5.5,0.71a8.59,8.59,0,0,1-3.91.71c-1.42,0-3-.18-4.44-0.18-2.49.53-4.62,0.89-7.29,1.42,1.77-2.31-5.86-2.31-6.39-1.6-1.06.53-2.84,0.36-4.79,0.36s-3.91,0-5.51,1.24c-0.53,0-.88-0.18-1.41-0.18a15.18,15.18,0,0,0-5.15-2.49c-1.6-.35-3-0.35-4.09.71-1.41-.36-2.49-1.07-4.08-1.42s-3.73-.18-7.29.89a37.63,37.63,0,0,0-4.26-.35c2.3-1.42-2.14-1.78-1.24-3.2a26.81,26.81,0,0,1-8-1.07c-2.84-.71-5.85-1.6-8.88-2.66s-5.85-2.13-8.7-3a27.93,27.93,0,0,0-7.82-2c-3.37-1.42-6.38-2.84-9.76-4.44-2.32-.89-5-2.49-7.64-3.73a28.27,28.27,0,0,0-8-2.66c-0.7-.35-1.41-0.89-2.49-1.42-6.74-4.09-14.56-11-25.22-15.81-3.2-2.66-6.21-5.51-9.06-8.35-1.41-1.42-2.84-2.84-4.26-4.08s-2.84-2.66-4.26-3.91a11,11,0,0,1-3-5.33,0.64,0.64,0,0,0-.18-0.53c-14.92-11.54-26.64-25.57-36.94-41.2-1.59-.71-3.2-1.07-4.62-1.6a55.84,55.84,0,0,1-4.79-4.26c-0.35-.71-0.71-1.6-1.24-2.49a312.93,312.93,0,0,1-17-45.11c-0.36-.18-0.89-0.71-1.42-1.07a28.63,28.63,0,0,1-1.24-5c-0.35-2-.89-4.62-1.24-8.17,0.53-.18,1.06-0.18,1.77-0.36a219.43,219.43,0,0,1-5.15-83.29l0.89,0.89A215.07,215.07,0,0,1,355,172.87v-0.18c0.17-.35.17-0.89,0.35-1.24,9.77-44.4,33.93-85.07,67.31-116.15-1.77,1.78-2.67,3.55-4.44,5.33,29.31-30.19,65.7-49.73,107.45-59.49,10.65-1.78,21.31-4.44,32-3.55,15.09,0,31.08,0,46.17.89l-0.88.89c20.43,1.78,40,8.88,59.49,16-2.67-.89-6.21-1.78-8.88-2.66C681,23.34,706.78,37.54,728.08,58.85c4.8,5.51,9.59,10.48,14.39,15.63h0.71c2.49-.89,2.84-3.91,3.2-5.86-1.79-2.66-3.91-5-6-7.64a53.32,53.32,0,0,0-3.91-5.68c-3.55-3.37-7.46-6.93-11.18-9.95-1.24-1.6-2.67-3-4.09-4.62-1.41-1.42-3-2.84-4.44-4.26A108.84,108.84,0,0,0,707,28.31l-2.49-2-2.67-1.78c-1.77-1.24-3.38-2.49-5.15-3.73-3.38-2.49-6.93-4.62-9.94-7.1-1.42-1.6-4.8-3.2-8-5-0.88-.36-1.59-0.89-2.49-1.24-0.71-.35-1.59-0.71-2.3-1.07a12.37,12.37,0,0,1-3.2-2.13c-1.42-.71-3-1.42-4.44-2.13A46,46,0,0,0,661.85.43c-1.6-.71-3.56-1.42-5.15-2.13,1.06-3-6.39-4.8-9.06-4.44l-3.37-1.24-3.38-1.07-6.74-2c-2.32-.71-4.62-1.07-6.94-1.78-2.3-.53-4.61-1.24-6.93-1.6-2.3-.53-4.61-1.24-6.93-1.78-0.35-1.24-2.49-2.31-5.15-2.66a20.42,20.42,0,0,0-7.46.18l-4.44-.53c-3.38-1.07-7.28-2.13-11-3.2,2.12-1.78-2.67-2.13-1.07-3.37a32.63,32.63,0,0,0,3.56-3.2c2.12-.18,4.44-0.18,7.28-0.36,2.85-.35,6.39-0.53,11-1.07l5.32,1.07c1.79,0.36,3.38.89,5.15,1.24s3.38,0.89,5.15,1.24a10.19,10.19,0,0,1,2.49.71c0.89,0.18,1.77.53,2.49,0.71,0.18,1.24,2.14,2.49,5.15,3.2a51.91,51.91,0,0,0,11.9,1.42,92.12,92.12,0,0,0-9.23-5c0.18-.71.53-1.42,0.71-2.31,0-.18.18-0.36,0.18-0.53-1.42-.53-3-1.24-4.44-1.78-2.5-.53-5-1.24-7.47-1.78-3.55-.35-2.49,2-5.32,2.49-1.6-.71-2.49-2-3.73-3a8.69,8.69,0,0,0-6-2.13c-2.84-.35-6-0.53-9.23-0.71-2.85-.18-6-0.18-9.06-0.36,0,0.18,0,.53-0.18.53-2.3.53-4.26,1.07-6.56,1.78-2.14-.18-4.27-0.18-6.58-0.18-2.14,0-4.44-.18-6.58,0a93,93,0,0,1-12.43-.35,236.81,236.81,0,0,0-43.34,5.15c-1.59-.89-4.08-0.89-6.74-0.18a27.85,27.85,0,0,0-6.93,3A246.35,246.35,0,0,0,448.2-4.9c-2.67.36-4.62-.71-7.64,1.78-1.6,2-5.15,3.55-5.68,6-2.14,1.07-4.27,2-6.39,3-2,1.07-4.09,2.13-6,3.2-2.84,1.78-5.86,3.55-8.52,5.51-2.85,2-5.68,3.73-8.35,5.86-2.49,1.6-5.15,3.37-7.82,5.15-1.77,2-3.2,3.91-5.15,6-1.59,1.6-3.37,3-5,4.62s-3.2,3.37-5,5.15a27.68,27.68,0,0,0-4.26,3.73,14.3,14.3,0,0,0-3,4.09c-2.3,2.13-4.79,4.26-6.93,6.39,1.24-3.2-2.49-2-1.41-5.51-2.14.71-4.27,4.62-6.23,6.75-0.88,2.31-1.59,4.44-2.3,6.75a5.53,5.53,0,0,0-.71,1.07c-0.71-2-2.67-.18-4.08.89a35.22,35.22,0,0,0-2.85,4.26,48.86,48.86,0,0,0-3,7.1c-2.32,2.49-3.73,3.37-5,4.62-1.79,3.73-6.23,8.35-5.51,11.54-1.41,3-2.67,5.68-4.08,8.88-2,3-3.56,6.39-5.33,9.59a14.66,14.66,0,0,0-2.84,4.44,53.48,53.48,0,0,1-2.32,5.68c-0.17,2.84-.35,5.68-0.35,8.7-1.07,3.37-2.14,6.57-3.2,9.95s-1.77,6.57-2.67,9.77c-0.71,2.31-1.24,4.08-1.77,6.39-1.77.71-3.91,5.33-5.86,7.81a41.41,41.41,0,0,0-1.24,11.54c-0.18,1.07-.35,2-0.53,3.2-3.56,2.84-2.14,10.83-2.67,14.21,0.71,1.78,1.6,3.37,2.3,5.15-1.77,2.13-1.41,6.22-1.77,9.41-5,7.64-4.08,23.09-3,36.58,1.06,2.31,2.14,4.44,3.38,6.75,0.35,3.2.53,6.39,0.88,9.41,0.36,3.2.89,6.21,1.24,9.41-1.59.71-2,4.62-.71,8.17,1.6,1.42,2.32,5.33,3.38,9.41,1.24,4.09,2.85,8.52,6,10.3,0.35,1.24.7,2.84,1.24,4.44,0.71,2,1.41,4.08,2,6,1.24,2.49-.18-4.8,1.06-2.31,1.24,1.78,2.3,4.44,3.73,6.75s2.67,4.08,3.91,4.08a7.48,7.48,0,0,0-1.06-5.51c-0.89-2-2.5-4.8-5-10.12,2-4.44-4.26-17-3.9-24.68-1.42-2.84-2.67-5.86-3.91-9.06-0.71-4.26-1.07-6.39-1.42-9.06-1.24-3.91-2.49-7.46-3.55-11,1.77,1.24,1.94-5.86,3.55-6.22-0.18-2.13-.18-4.26-0.36-6.39s0-4.26-.17-6.22c0-4.08-.18-8.35,0-12.43,0.35-2,.53-4.08.88-6,0.18-2.66.54-5.15,0.71-7.64,0.36-2.49.71-5.15,1.07-7.64a9.43,9.43,0,0,1,1.24-1.42c0.35,1.07.88,2.13,1.41,3.55,2.85-7.81,3.2,2.49,4.8,3.73,0.88,0.71,1.77,1.24,2.67,2-0.36,4.26-1.07,9.77.35,13.32a13,13,0,0,0-.71,3c-1.24.89-1.77,4.44-1.59,8.35a34,34,0,0,0,.53,6,15,15,0,0,0,1.59,4.79h1.6c2,0.89,3.91,2,5.86,3a42.52,42.52,0,0,0,1.77,4.26c0.71,1.42,1.24,2.84,2,4.26,0.35,3.2.53,5,.88,7.1a22.63,22.63,0,0,0,2.85-.18c0.53,2.66.88,5.33,1.24,7.64a13,13,0,0,0,2.3,6c0.71,3.2,1.42,6.22,2.14,9.41l2.67,9.59c0.88,3.73,2.3,7.64,3.37,11.37,1.24,3.73,2.67,7.46,3.73,11.19,1.07,3.37,2.32,6.57,3.38,9.77,1.06,3.37,2.67,6.39,3.91,9.77,1.06,2.84,2.49,5.68,3.73,8.35,1.24,2.84,2.49,5.51,3.91,8.35a32.44,32.44,0,0,0,2.3,8,34.65,34.65,0,0,0,5.51,8.17c1.41,0.53,2.84.89,4.44,1.6a29.21,29.21,0,0,1,2.3,3.37c-3.2-.71-0.53,2.84-0.53,4.26,2,2.31,4.26,4.44,6.39,6.57,0.17,2.13,0,3.91.17,5.86,3,3.55,5.69,6.75,8.71,10.12,1.77,3,5.32,3.55,6.56,4.62,1.6,1.42,3.2,2.84,5,4.26l5.32,4.26c5.5,4.8,5.5,7.1,8.35,11.19-1.77,0-3.38,0-5.33-.18-0.53.35-1.06,0.71-1.41,0.89,1.59,1.42,3,2.66,4.44,3.91,7.46,5.33,6.93.18,13.32,3.2,2.65,1.6,5,3.2,7.64,5,2,1.42,3.9.89,8.88,5.15,3.2-.53,4.79.71,6.56,2.49s3.73,4.26,7.46,5.68A34.1,34.1,0,0,0,464,449c-2.14-1.24-4.44-2.49-6.58-3.55-2.3-1.24-4.44-2.31-6.58-3.73a0.9,0.9,0,0,1-.53.35c0.36,1.6.89,3.2,1.24,4.8l10.83,5.68c3.91,2,8.17,4.26,12.08,6.22,3.2,1.42,6.93,2.84,10.3,4.09,4.08,1.6,7.11,2.84,9.77,3.91,2.49,1.78,5.14,3.2,7.46,4.62a45.8,45.8,0,0,1,6.74.71,67,67,0,0,1,7.46,1.42c5.33,1.24,11.55,2.31,19,3.55,3.38,0.89,7.11,1.78,10.3,2.49l-3.2,5.86c-3.2-.53-6.39-1.07-9.41-1.78-2.84-.71-5.5-1.6-8.17-2.31-1.42-.35-2.67-0.71-4.09-1.07s-2.65-.89-4.08-1.24c-0.36.53-.89,1.24-1.42,2-1.77-.18-3.38-0.53-4.79-0.71-3.38-2.13-6.76-4.44-10-6.75a29.1,29.1,0,0,1-3.91.35c-8.34-2.13-11.18-2.49-12.08.18-2.65-.71-5.32-1.42-8-2.31-5.5-2.84-11.9-6.57-22.73-9.41a9,9,0,0,0,2.84,3,42.41,42.41,0,0,0,5,2.66c2,0.89,4.08,1.78,6.39,2.66s4.79,1.6,7.28,2.31c1.77,0.89,3.55,1.78,5.33,2.49l5.5,2.31c3.73,1.6,7.27,3.2,11,4.44a17.3,17.3,0,0,1,3.2.53,7.75,7.75,0,0,0,1.41-2c2.14,0.71,4.09,1.42,6.39,2.13,2.32,2.13,5.86,3.37,10,4.26,4.08,0.71,8.88,1.07,13.32,1.78l8.52,1.6c2.85,0.53,5.68,1.07,8.53,1.42,3.37,0.18,6.93.35,9.94,0.71l13.32,0.53c2,0.36,4.26.53,6.21,0.89a39.87,39.87,0,0,1,4.62.18,45.11,45.11,0,0,1,4.62,1.24c-0.36.89-.53,1.6-0.89,2.31,0,0.18-.18.35-0.18,0.53,4.62,2.49,6.76,2.31,11,.36,1.77,0,3.38-.18,5-0.18,1.6-.18,3.2-0.18,5-0.35,2-.89,3.91-1.78,5.51-2.66,1.24,0.18,2.3.18,3.2,0.35,2.49,0.89,2.12,2,4.08,2.31,5.51-.89,11.36-1.78,16.52-3,4.44-.89,9.59-1.78,9.59-0.18,2.14-.53,4.44-0.89,7.29-1.6a45.79,45.79,0,0,0,5-1.42c1.77-.71,3.73-1.42,5.86-2.49,2.65-1.6,5.5-3.2,8.17-4.79,1.24-.36,6.56,0,9.59-4.44a14.06,14.06,0,0,0-3.2-2c1.59-1.24,3.2-2.66,4.79-4.08,5.15-2,10.12-3.91,15.09-6.22a9.66,9.66,0,0,0,4.62.35c1.42-.71,3-1.42,4.62-2.13a37,37,0,0,0,4.61-2.31c3-1.6,5.68-3.37,6.76-6a24,24,0,0,0,5.5-3.55c2-1.6,4.44-3.73,8.17-7.1,1.42-.89,2.67-1.6,4.09-2.49,2.84-1.6,5.68.35,10.12-4.26,2.84-2,5.15-3.73,6-7.1,1.07-2,2-3.37,3-5.33,3.37-2.84,6.56-6,9.76-9.24,3.2-3,6.21-6.39,9.24-9.59,0.88-.53,1.59-1.07,2.65-1.78a20.16,20.16,0,0,0,8.53-6.39c1.24-3.2,7.82-7.81,7.11-13.14,1.77-2.13,3.2-4.44,4.79-6.75,1.6-1.78,3-3.55,4.62-5.51,1.42-1.78,3-3.73,4.44-5.86,1.59-.71,3.2-2.49,4.79-5a95,95,0,0,0,4.44-8.7A39.5,39.5,0,0,0,821,347.8a24.72,24.72,0,0,0,1.77-8c0.89-2,2.85-4.44,1.77-7.1,2.14-4.26,5.15-9.41,5.51-18.29,1.06-2.84,2.3-5.86,3.55-9.06,3.91-3,4.26.71,7.82-1.24,0.71-3.91,1.42-8,2.14-11.9,1.24-5.68,1.24-9.23,2.84-13.5,0.18-2.31,0-5.15,0-7.46,0.71-3,1.42-6.22,2.14-8.7,0.53-2.66.71-4.8,0.35-5.86a28.52,28.52,0,0,0,0-10.3h0ZM640.53-3.84a15.1,15.1,0,0,0,2.67.71c0.89,0.18,1.77.53,2.85,0.71-2.85-.89-6,0.18-8.35-2a8.84,8.84,0,0,0-.53-0.71,18.76,18.76,0,0,0,3.37,1.24h0ZM333.65,204.66A39.66,39.66,0,0,0,334,200a42.91,42.91,0,0,1-.36,4.62h0Zm11-114a25.82,25.82,0,0,1,3-4.26,9.06,9.06,0,0,1-3,4.26h0ZM638.4,473.36a1.33,1.33,0,0,0-.71.18l1.59-.53a1.86,1.86,0,0,0-.88.36h0Zm151.67-98.74c0.88-1.6,1.77-3.2,2.67-5.15,0.53-1.24,1.24-2.49,1.94-3.91a35.67,35.67,0,0,1-4.61,9.06h0Zm16.15-25.75c-1.06,1.78-2.12,3.91-3,5.68,1.06-2.66,2.3-5.15,3.55-7.64a7.85,7.85,0,0,1-.53,2h0Zm5.15-7.64-0.35.36a0.69,0.69,0,0,0,.35-0.36,3.91,3.91,0,0,1,.71-1.06,3.64,3.64,0,0,1-.71,1.06" transform="translate(869.96 35.27)"/>
    </g>
    <path class="cls-4" d="M-671.85,241q-23-22-60.38-24.86c17.09-6.59,30.5-15.86,40.27-27.65A61.91,61.91,0,0,0-677.26,148c0-18.66-6.65-33.68-19.88-45.24S-730.33,85.5-756.8,85.5c-8.55,0-17.71.5-27.48,1.4-3.46.34-7.65,0.67-12.57,0.95s-10.17.5-15.86,0.5c-8.15,0-18.93-.34-32.17-0.95l-23.18-.5c-0.95,0-1.45.95-1.45,2.85s0.5,2.85,1.45,2.85c11.67,0,20.33.89,26,2.63s9.55,4.8,11.62,9.22,3.07,11.39,3.07,20.83V344.44c0,9.5-1.12,16.42-3.35,20.83s-6.14,7.54-11.84,9.27S-857,377.11-869,377.11c-0.61,0-.95.95-0.95,2.85s0.34,2.85.95,2.85c10.39,0,18.43-.17,24.13-0.45l32.17-.5c7.26,0,13.91.17,19.89,0.5s11.23,0.61,15.64.89q18.52,1.42,34.07,1.45,26.56,0,48.09-11.62a86.72,86.72,0,0,0,33.85-31.95q12.31-20.36,12.29-45.46,0-32.59-23-54.68h0ZM-785.45,94.5c3.91-1.28,10-1.9,18.21-1.9q30.33,0,44.74,16.36C-712.84,119.85-708,134.1-708,151.8q0,29.32-16.59,47.08t-51.1,17.76l-21.34-.5V126.22c0-10.39.95-18,2.85-22.73s4.8-7.71,8.77-9h0Zm86.63,263.91q-16.84,17.76-51.39,17.76c-12.9,0-22.79-1-29.55-3.07s-11.39-5.25-13.74-9.72-3.57-10.72-3.57-18.94V227.54q20.86-1.42,36-.95,36.95,0.5,58,22.73t21.06,58.2q0,33.18-16.81,50.88h0ZM-277.24,380c0-1.9-.5-2.85-1.45-2.85q-17.93,0-26.47-2.35c-5.7-1.56-9.55-4.64-11.62-9.22s-3.07-11.62-3.07-21.11v-258c0-2.23-2.35-3.3-7.09-3.3-2.51,0-4.24.45-5.19,1.4L-536.24,346.34V125.27c0-9.44.95-16.42,2.85-20.83s5.7-7.48,11.39-9.22,14.69-2.63,27-2.63c0.95,0,1.4-.95,1.4-2.85s-0.45-2.85-1.4-2.85l-22.23.5q-20.86.92-34.57,0.95c-8.21,0-18.93-.34-32.23-0.95l-24.58-.5c-0.67,0-.95.95-0.95,2.85s0.28,2.85.95,2.85c12,0,20.89.89,26.75,2.63s9.77,4.8,11.79,9.22,3.13,11.39,3.13,20.83V385.66c0,2.18,2.35,3.3,7.09,3.3,2.85,0,4.69-.62,5.64-1.9l203.59-260.83V344.44c0,9.83-.95,16.92-2.85,21.34s-5.64,7.43-11.34,9-14.69,2.35-27,2.35c-0.95,0-1.45.95-1.45,2.85s0.5,2.85,1.45,2.85c9.16,0,16.53-.17,22.23-0.45l34.57-.5,32.67,0.5c6,0.28,13.85.45,23.63,0.45,0.95,0,1.45-.95,1.45-2.85h0Zm348.92,0c0-1.9-.67-2.85-1.9-2.85q-15.67,0-27-12.06T15.32,318L-96.39,82.66c-0.33-.95-1.28-1.4-2.85-1.4a3.63,3.63,0,0,0-3.29,1.4l-99.92,235.76c-6.65,15.81-12.68,27.87-18.21,36.25s-11.39,14.19-17.54,17.48-13.63,5-22.45,5c-1.62,0-2.4.95-2.4,2.85s0.78,2.85,2.4,2.85c6.31,0,14.19-.33,23.63-0.95,10.72-.61,20.22-0.95,28.43-0.95,8.82,0,19.27.34,31.22,0.95,10.72,0.61,18.93.95,24.63,0.95q2.34,0,2.35-2.85t-2.35-2.85q-46.42,0-46.41-27.93c0-6.93,2.23-15.75,6.65-26.48l40.72-96.63h89.48l54.46,116c4.08,9.16,6.14,15.92,6.14,20.39,0,5.36-2.68,9.1-8,11.34s-13.91,3.3-25.58,3.3c-1.23,0-1.9.95-1.9,2.85s0.67,2.85,1.9,2.85c5.36,0,13.13-.33,23.18-0.95,10.78-.61,19.61-0.95,26.53-0.95,5.7,0,14.86.34,27.48,0.95s21.89,0.95,27.93.95c1.23,0,1.9-.95,1.9-2.85h0ZM-147.55,216.14l37.87-89.92,42.62,89.92h-80.49ZM404,380c0-1.9-.62-2.85-1.9-2.85q-15.58,0-27-12.06T347.64,318L235.93,82.66c-0.34-.95-1.28-1.4-2.84-1.4a3.64,3.64,0,0,0-3.3,1.4L129.87,318.41q-9.89,23.71-18.21,36.25c-5.53,8.32-11.34,14.19-17.54,17.48s-13.63,5-22.45,5c-1.56,0-2.4.95-2.4,2.85s0.84,2.85,2.4,2.85c6.31,0,14.19-.33,23.68-0.95,10.72-.61,20.16-0.95,28.37-0.95,8.83,0,19.27.34,31.28,0.95,10.72,0.61,18.94.95,24.58,0.95,1.61,0,2.4-.95,2.4-2.85s-0.79-2.85-2.4-2.85q-46.33,0-46.36-27.93c0-6.93,2.18-15.75,6.59-26.48l82.89-196.49L324.46,342.1c4.08,9.16,6.14,15.92,6.14,20.39,0,5.36-2.67,9.1-8,11.34s-13.9,3.3-25.58,3.3c-1.23,0-1.9.95-1.9,2.85s0.67,2.85,1.9,2.85c5.37,0,13.13-.33,23.24-0.95,10.71-.61,19.54-0.95,26.47-0.95,5.69,0,14.86.34,27.48,0.95s22,0.95,27.93.95c1.28,0,1.9-.95,1.9-2.85h0Zm88.75-12.06q34.34,20.61,78.37,20.61a169.89,169.89,0,0,0,82.6-20.83,163.48,163.48,0,0,0,60.83-56.8,145.52,145.52,0,0,0,22.73-79.09,155.61,155.61,0,0,0-18.21-73.39,143.27,143.27,0,0,0-52.34-55.63q-34.09-21-79-21.06-40.31,0-78.86,17.54a154.42,154.42,0,0,0-63.18,52.28Q421,186.38,421,235.08q0,41.72,18.7,77a141.23,141.23,0,0,0,53,55.85h0Zm152.93-5q-25.81,15.58-58,15.64-37.87,0-67.7-21.06T473.6,299.7Q457,263.09,457,218.55q0-58.73,29.38-92.32T567.81,92.6Q608,92.6,638.08,112t46.64,54q16.59,34.52,16.58,79,0,41.72-14.91,72c-10,20.16-23.52,35.52-40.72,45.91h0Zm133.71,17c0,1.9.34,2.85,1,2.85,10.44,0,18.48-.17,24.17-0.45l32.18-.5,42.62,0.5c7.25,0.28,17.37.45,30.27,0.45,1,0,1.46-.95,1.46-2.85s-0.5-2.85-1.46-2.85q-25.54,0-37.36-2.85c-7.87-1.84-13.18-5.08-15.86-9.66s-4-12-4-22V125.77c0-7.93,1-13.91,3.07-18s5.74-6.93,11.11-8.49,13.4-2.4,24.12-2.4h37.43c15.14,0,27.48,5,36.91,14.91s14.86,23.79,16.09,41.44c0,0.95.94,1.45,2.84,1.45s2.85-.5,2.85-1.45l-1-62c0-2.85-1.56-4.3-4.74-4.3H780.84c-0.61,0-.94.95-0.94,2.85s0.34,2.85.94,2.85c12,0,20.73.89,26.25,2.63s9.33,4.8,11.4,9.22,3.07,11.39,3.07,20.83V344.44c0,9.5-1.06,16.53-3.07,21.11s-5.92,7.65-11.62,9.22-14.52,2.35-26.52,2.35c-0.62,0-1,.95-1,2.85" transform="translate(869.96 35.27)"/>
    <path class="cls-3" d="M-776.53,589.2a2,2,0,0,0-1.34-.22h-7.82L-821,501.62c-0.06-.28-0.33-0.39-0.84-0.39a0.74,0.74,0,0,0-.84.39L-858.19,589h-9a2.16,2.16,0,0,0-1.29.22,1.92,1.92,0,0,0-.28,1.34,28.21,28.21,0,0,0,.45,5.25,115.48,115.48,0,0,1,1.12,18,0.65,0.65,0,0,0,.78.67,0.65,0.65,0,0,0,.78-0.67c0-8,1.62-13.57,4.91-16.81s7.65-4.86,13.18-4.86h46.58c7.88,0,13.46,1.67,16.76,5.08s4.91,8.88,4.91,16.59a0.68,0.68,0,0,0,.84.67,0.68,0.68,0,0,0,.84-0.67,158,158,0,0,1,1-19.38c0.22-2.12.28-3.41,0.28-3.85a2,2,0,0,0-.22-1.34h0Zm-78.25-.22,30.61-75.23L-793.79,589h-61Zm98.3,0.89a25.69,25.69,0,0,0,14.35,4.08,31.5,31.5,0,0,0,15-3.58,26.65,26.65,0,0,0,10.89-10.22,29.17,29.17,0,0,0,4.08-15.53,32.05,32.05,0,0,0-3.35-14.35,28.09,28.09,0,0,0-9.55-10.89,25.57,25.57,0,0,0-14.47-4.13,32.64,32.64,0,0,0-14.13,3.24,27.61,27.61,0,0,0-11.39,9.66q-4.52,6.45-4.52,15.75a33.91,33.91,0,0,0,3.41,15,26.79,26.79,0,0,0,9.72,10.95h0Zm31.33-4c-3.13,3.69-7.43,5.53-13,5.53A18.46,18.46,0,0,1-750.22,587a28.69,28.69,0,0,1-8.27-11.5,40.38,40.38,0,0,1-3-15.75c0-7,1.51-12.4,4.53-16.2s7.26-5.59,12.68-5.59a20.54,20.54,0,0,1,12.4,4,26.31,26.31,0,0,1,8.43,10.89,39.38,39.38,0,0,1,3,15.47c0,8-1.56,13.8-4.69,17.54h0Zm35.69,3.91c4.13,2.68,9.22,4.08,15.3,4.08a28.79,28.79,0,0,0,10.83-2,34.12,34.12,0,0,0,9.83-6.26,0.42,0.42,0,0,0,.06-0.73,1,1,0,0,0-.78-0.45h-0.28c-3.69,3.35-8.6,5-14.69,5-8,0-14.13-2.68-18.21-7.93s-6.14-11.9-6.14-19.88c0-7,1.56-12.62,4.64-16.76s7.48-6.2,13.18-6.2a14.16,14.16,0,0,1,6.65,1.4,12.74,12.74,0,0,1,4.3,4c1.62,2.68,3.52,4,5.75,4a3.8,3.8,0,0,0,3-1.23,4,4,0,0,0,1.12-2.91q0-3.27-5-5.7a25.4,25.4,0,0,0-11.17-2.46,30.75,30.75,0,0,0-14.47,3.69,30.36,30.36,0,0,0-11.56,10.39,28.12,28.12,0,0,0-4.47,15.86,32,32,0,0,0,3,13.52,25.26,25.26,0,0,0,9.22,10.5h0Zm146.11,1.51c0-.62-0.17-0.9-0.45-0.9a19.82,19.82,0,0,1-6-.67,4,4,0,0,1-2.57-2.79,22.46,22.46,0,0,1-.67-6.37V553c0-5.81-1.34-10.16-4-13s-6.54-4.24-11.56-4.24a22.13,22.13,0,0,0-10.83,3c-3.52,2-7,5.25-10.67,9.72-0.67-4.19-2.29-7.32-4.92-9.5s-6-3.18-10.33-3.18A21.67,21.67,0,0,0-616,538.54a37.65,37.65,0,0,0-10.39,9.27v-0.56a20.18,20.18,0,0,0-1.45-8.21c-0.95-2.12-1.79-3.24-2.57-3.24a1.53,1.53,0,0,0-.73.17L-647,543.4a0.66,0.66,0,0,0-.33.89,0.82,0.82,0,0,0,.78.67h0.28c3.8-1.45,6.48-2.18,8-2.18a4,4,0,0,1,4,2.18c0.78,1.4,1.17,3.8,1.17,7.09v28.48a20.19,20.19,0,0,1-.73,6.37,4.43,4.43,0,0,1-2.57,2.79,19.16,19.16,0,0,1-6,.67c-0.28,0-.45.28-0.45,0.9s0.17,0.84.45,0.84c2.18,0,3.91-.06,5.14-0.17l7.54-.11,7.43,0.11c1.23,0.11,2.91.17,5.08,0.17,0.34,0,.45-0.28.45-0.84s-0.11-.9-0.45-0.9a19.81,19.81,0,0,1-6-.67,4.15,4.15,0,0,1-2.57-2.79,22.8,22.8,0,0,1-.61-6.37V550.21A30.61,30.61,0,0,1-618,543a18.1,18.1,0,0,1,9-2.57c4.25,0,7.43,1.4,9.44,4.13s3.07,7,3.07,12.85v23.18a22.46,22.46,0,0,1-.67,6.37,4.43,4.43,0,0,1-2.57,2.79,19.34,19.34,0,0,1-6,.67c-0.28,0-.39.28-0.39,0.9s0.11,0.84.39,0.84c2.23,0,3.91-.06,5.14-0.17l7.6-.11,7.37,0.11c1.34,0.11,3.07.17,5.3,0.17,0.17,0,.28-0.28.28-0.84s-0.11-.9-0.28-0.9a20,20,0,0,1-6.09-.67,4.23,4.23,0,0,1-2.62-2.79,20.19,20.19,0,0,1-.73-6.37V553a22.11,22.11,0,0,0-.11-2.57,31.45,31.45,0,0,1,8.44-7.37,18.73,18.73,0,0,1,9-2.63c4.41,0,7.6,1.4,9.66,4.13s3,7,3,12.85v23.18a22.46,22.46,0,0,1-.67,6.37,4.44,4.44,0,0,1-2.68,2.79,19.82,19.82,0,0,1-6,.67c-0.17,0-.28.28-0.28,0.9s0.11,0.84.28,0.84c2.18,0,4-.06,5.25-0.17l7.43-.11,7.54,0.11c1.23,0.11,3,.17,5.14.17,0.28,0,.45-0.28.45-0.84h0Zm71.49-7.15h-0.28c-1.62.56-3.13,1.06-4.47,1.51a11.67,11.67,0,0,1-3.52.61,4.19,4.19,0,0,1-4-2.18c-0.84-1.45-1.23-3.85-1.23-7V536.25a0.55,0.55,0,0,0-.56-0.33,0.9,0.9,0,0,0-.73.06,8.1,8.1,0,0,1-3.41,3.69,25.82,25.82,0,0,0-6.48-3.18,22.86,22.86,0,0,0-7.48-1.23,29.38,29.38,0,0,0-14.35,4.13,34.9,34.9,0,0,0-12.18,11.9,33.25,33.25,0,0,0-4.8,18c0,7.6,1.9,13.52,5.81,17.71A19,19,0,0,0-515,593.39,23.22,23.22,0,0,0-502.68,590a48.75,48.75,0,0,0,10.78-9.16,25.19,25.19,0,0,0,1.34,8.77c0.9,2.46,1.79,3.63,2.63,3.63l0.56-.11,15.81-7.54a0.58,0.58,0,0,0,.45-0.78,0.73,0.73,0,0,0-.73-0.67h0Zm-20.05-5.53c-6.7,7.2-13,10.83-19,10.83-5,0-9-2.23-12-6.7s-4.41-10.28-4.41-17.43c0-8,1.84-14.63,5.47-19.72s8.38-7.6,14.19-7.6a18.4,18.4,0,0,1,10.83,3.46c3.24,2.35,4.86,5.2,4.86,8.66v28.49h0Zm67.53-37.09a26.14,26.14,0,0,0-12.57-4.41,39.48,39.48,0,0,0,14.52-13.52,32.89,32.89,0,0,0,5.86-18.49c0-10.84-5.64-16.25-17-16.25-8.43,0-15.86,4-22.23,12s-9.49,23.68-9.49,47c0,11.11.89,20.05,2.68,26.75s4.58,11.67,8.27,14.75,8.6,4.63,14.69,4.63A27.29,27.29,0,0,0-425,590.2,24.1,24.1,0,0,0-415.72,580a31.36,31.36,0,0,0,3.13-14.24,30.49,30.49,0,0,0-3.13-14.07,26.45,26.45,0,0,0-8.66-10.17h0Zm-33.34-3Q-456.46,491-436.66,491c4.58,0,8,1.73,10.33,5.2s3.52,7.88,3.52,13.18a29.25,29.25,0,0,1-3.74,14.47,28.44,28.44,0,0,1-10.39,10.84,28.74,28.74,0,0,1-15.08,4c-2.57,0-4.47,0-5.7-.11h0ZM-423,586c-2.85,3.52-7.09,5.31-12.79,5.31-5.08,0-9.16-1.4-12.34-4.25s-5.59-7.59-7.21-14.52-2.4-16.31-2.4-28.26v-3.13c1.34-.11,3.24-0.17,5.81-0.17,10.56,0,18.71,2.57,24.52,7.71s8.71,12.4,8.71,21.78c0,6.87-1.45,12-4.3,15.53h0Zm84.79-1.68h-0.28c-1.62.56-3.13,1.06-4.52,1.45a11.32,11.32,0,0,1-3.46.67,4.27,4.27,0,0,1-4.08-2.23c-0.78-1.45-1.23-3.8-1.23-7V536.81a0.8,0.8,0,0,0-.33-0.67,1.11,1.11,0,0,0-.78-0.33l-0.45.17-14.91,6.7a0.61,0.61,0,0,0-.45.84,0.73,0.73,0,0,0,.73.73h0.28a12.26,12.26,0,0,1,5.14-1.45,3.46,3.46,0,0,1,3.35,2.51c0.61,1.68.9,4.47,0.9,8.32v24.69a31.25,31.25,0,0,1-9.27,7.32,22.17,22.17,0,0,1-10.11,2.62c-4,0-7-1.4-8.94-4.13s-3-7-3-12.68V536.81a0.79,0.79,0,0,0-.45-0.67,1.24,1.24,0,0,0-.67-0.33l-0.61.17-14.91,6.7a0.59,0.59,0,0,0-.39.84,0.82,0.82,0,0,0,.78.73h0.28a12.7,12.7,0,0,1,5.14-1.45,3.28,3.28,0,0,1,3.18,2.51c0.67,1.68.95,4.47,0.95,8.32v22.12c0,5.7,1.29,10,3.91,13s6.26,4.41,10.89,4.41a25.77,25.77,0,0,0,11.67-2.9c3.85-2,7.65-5.14,11.56-9.5V582A21.78,21.78,0,0,0-357,590.2q1.34,3.18,2.68,3.18l0.56-.17,15.92-7.37a0.74,0.74,0,0,0,.39-0.95,0.82,0.82,0,0,0-.78-0.61h0Zm79.37,7c0-.62-0.11-0.9-0.33-0.9a18.11,18.11,0,0,1-5.86-.67,4.15,4.15,0,0,1-2.46-2.57,36,36,0,0,1-1.17-6.59l-5-44.12a1.1,1.1,0,0,0-.61-0.73,2.5,2.5,0,0,0-1.06-.28,1.18,1.18,0,0,0-1.29.73l-19.83,46.42L-320,535.8a1.31,1.31,0,0,0-1.12-.28c-0.95,0-1.45.28-1.45,0.73l-3.69,41.05q-0.59,7.37-2.51,10.22t-6.87,2.85c-0.28,0-.45.28-0.45,0.9s0.17,0.84.45,0.84c2.07,0,3.69-.06,4.8-0.17l6-.11,5.81,0.11c1.06,0.11,2.57.17,4.58,0.17,0.28,0,.39-0.28.39-0.84s-0.11-.9-0.39-0.9c-3.13,0-5.47-.73-7-2.23s-2.29-4-2.29-7.43c0-.56.11-1.73,0.28-3.41l3.13-26.36,20.5,41.16a1.4,1.4,0,0,0,1.17.56c0.67,0,1.06-.17,1.12-0.56l17.82-41.72,4.3,30.16c0.17,1.9.28,3.13,0.28,3.58,0,2.46-.61,4.13-1.79,5s-3.24,1.28-6.2,1.28c-0.22,0-.28.28-0.28,0.9s0.06,0.84.28,0.84q3,0,4.69-.17l6.54-.11,6.87,0.11c1.4,0.11,3.35.17,5.81,0.17,0.22,0,.33-0.28.33-0.84h0Zm99-42.06q-6.79-6.7-17.93-7.37a28.55,28.55,0,0,0,11.84-8.1,18.35,18.35,0,0,0,4.41-12.18A18,18,0,0,0-167.17,508c-3.74-3.58-9.55-5.36-17.48-5.36-2.23,0-4.86.17-7.82,0.45-1.12.06-2.46,0.17-4,.28s-3.13.11-4.86,0.11c-2.46,0-5.59-.06-9.38-0.28l-6.87-.11c-0.28,0-.39.28-0.39,0.84s0.11,0.84.39,0.84a32.21,32.21,0,0,1,8.21.78,5.48,5.48,0,0,1,3.58,2.79,15.92,15.92,0,0,1,.89,6.26v66a15.37,15.37,0,0,1-1,6.37,5.28,5.28,0,0,1-3.63,2.79,36.84,36.84,0,0,1-8.32.67c-0.17,0-.28.28-0.28,0.9s0.11,0.84.28,0.84c3.07,0,5.42-.06,7.15-0.17l9.38-.11c2.29,0,4.3.06,6.14,0.11s3.35,0.22,4.69.33c3.57,0.28,7,.39,10.28.39a28.26,28.26,0,0,0,13.8-3.46,25.76,25.76,0,0,0,9.83-9.61A27.49,27.49,0,0,0-153,565.74a22.21,22.21,0,0,0-6.87-16.53h0Zm-33.9-44.12a20.83,20.83,0,0,1,5.86-.61c6.42,0,11.17,1.67,14.19,5.08s4.47,7.71,4.47,13c0,5.92-1.73,10.61-5.14,14.19s-8.88,5.36-16.37,5.36l-6.7-.17v-27c0-3.35.28-5.75,0.89-7.15a4.27,4.27,0,0,1,2.79-2.68h0Zm27.31,79.81c-3.46,3.69-8.71,5.47-15.75,5.47a37.6,37.6,0,0,1-9.55-.89,7,7,0,0,1-4.47-3,11.42,11.42,0,0,1-1.23-5.92V545.07c4.24-.28,8.15-0.39,11.67-0.28,7.48,0.11,13.46,2.4,17.87,6.93s6.65,10.39,6.65,17.59q0,10.14-5.19,15.58h0Zm89.36-.78h-0.28c-1.62.56-3.13,1.06-4.47,1.51a11.67,11.67,0,0,1-3.52.61,4.19,4.19,0,0,1-4-2.18c-0.84-1.45-1.23-3.85-1.23-7V536.25c0-.17-0.17-0.28-0.56-0.33a0.9,0.9,0,0,0-.73.06,8.09,8.09,0,0,1-3.41,3.69,25.82,25.82,0,0,0-6.48-3.18,22.85,22.85,0,0,0-7.48-1.23,29.38,29.38,0,0,0-14.36,4.13,34.9,34.9,0,0,0-12.18,11.9,33.76,33.76,0,0,0-4.8,18c0,7.6,1.9,13.52,5.81,17.71a19,19,0,0,0,14.52,6.37A23.22,23.22,0,0,0-107.91,590a48.71,48.71,0,0,0,10.78-9.16,25.2,25.2,0,0,0,1.34,8.77c0.9,2.46,1.79,3.63,2.63,3.63l0.56-.11,15.81-7.54a0.58,0.58,0,0,0,.45-0.78,0.72,0.72,0,0,0-.73-0.67h0Zm-20.05-5.53c-6.65,7.2-13,10.83-19,10.83-5,0-9-2.23-12-6.7s-4.41-10.28-4.41-17.43c0-8,1.84-14.63,5.47-19.72s8.38-7.6,14.19-7.6A18.4,18.4,0,0,1-102,541.44c3.24,2.35,4.86,5.2,4.86,8.66v28.49h0Zm125.33,5.7H27.92c-1.62.56-3.13,1.06-4.47,1.45a11.93,11.93,0,0,1-3.52.67,4.13,4.13,0,0,1-4-2.23c-0.84-1.45-1.23-3.8-1.23-7V536.81a0.8,0.8,0,0,0-.33-0.67,1.24,1.24,0,0,0-.84-0.33l-0.39.17L-2,542.67a0.82,0.82,0,0,0-.28.89,0.72,0.72,0,0,0,.72.67h0.28a16.63,16.63,0,0,1,5.14-1.45A3.37,3.37,0,0,1,7.2,545.3a26.44,26.44,0,0,1,1,8.32V579a31.57,31.57,0,0,1-8.43,7.21,17.5,17.5,0,0,1-9,2.62c-4.36,0-7.54-1.34-9.61-4.13s-3.07-7-3.07-12.79V536.81a0.73,0.73,0,0,0-.39-0.67,1.36,1.36,0,0,0-.73-0.33l-0.56.17-15,6.7a0.54,0.54,0,0,0-.33.84,0.78,0.78,0,0,0,.78.73h0.28a16.39,16.39,0,0,1,5.08-1.45,3.29,3.29,0,0,1,3.24,2.51c0.61,1.68.89,4.47,0.89,8.32V576.3a15.27,15.27,0,0,0,.17,2.68,31.34,31.34,0,0,1-8.38,7.21,17.64,17.64,0,0,1-9,2.62c-4.36,0-7.6-1.34-9.61-4.13s-3.07-7-3.07-12.79V536.81a0.79,0.79,0,0,0-.45-0.67,1.21,1.21,0,0,0-.73-0.33l-0.56.17-15,6.7a0.57,0.57,0,0,0-.33.84,0.82,0.82,0,0,0,.78.73h0.28a12.48,12.48,0,0,1,5.14-1.45,3.28,3.28,0,0,1,3.18,2.51,26.51,26.51,0,0,1,.95,8.32V576.3c0,5.81,1.34,10.11,4,13s6.54,4.36,11.56,4.36A20.72,20.72,0,0,0-39,590.6,42.49,42.49,0,0,0-28.21,581c0.67,4.19,2.29,7.32,4.86,9.5s6,3.18,10.22,3.18a21.62,21.62,0,0,0,10.67-2.9,40.27,40.27,0,0,0,10.61-9.5V582a21.74,21.74,0,0,0,1.34,8.21c0.89,2.12,1.79,3.18,2.62,3.18l0.56-.17,16-7.37A0.67,0.67,0,0,0,29,584.9a0.78,0.78,0,0,0-.78-0.61h0Zm49-42.28a14.48,14.48,0,0,1,9.55-3.63,8.37,8.37,0,0,1,6.53,2.57,10.67,10.67,0,0,1,2.29,7.26,13.68,13.68,0,0,1-2,7.48,16.75,16.75,0,0,1-4.64,5,81.77,81.77,0,0,1-7.26,4.47,37.52,37.52,0,0,0-9.61,6.26c-2.12,2.12-3.18,5-3.18,8.71,0,4.52,1.62,7.88,4.92,10.05a20.51,20.51,0,0,0,11.45,3.18,24.5,24.5,0,0,0,12.12-3.13,26.31,26.31,0,0,0,9.27-9.27,0.77,0.77,0,0,0,0-.84,1,1,0,0,0-.73-0.45,0.56,0.56,0,0,0-.56.28,20.43,20.43,0,0,1-7,7.15,16.82,16.82,0,0,1-8.55,2.4,14.49,14.49,0,0,1-9.66-3.41,11,11,0,0,1-4-8.71,9.61,9.61,0,0,1,3.07-7.48A47.81,47.81,0,0,1,89,563.62c3.24-1.79,5.81-3.35,7.71-4.63a18,18,0,0,0,4.86-5,13.26,13.26,0,0,0,2-7.37,11,11,0,0,0-3.18-8.32c-2.07-2-5.08-3.07-8.94-3.07a23.23,23.23,0,0,0-5.08.56,42.29,42.29,0,0,0-5,1.73,15.74,15.74,0,0,1-4,1.12,2.23,2.23,0,0,1-1.56-.61,2.8,2.8,0,0,1-.73-2.07,5.75,5.75,0,0,1,.17-1.56c0.11-.11,0-0.22-0.28-0.33a1.57,1.57,0,0,0-.84-0.22,0.77,0.77,0,0,0-.61.28l-4.41,18.94c-0.06.39,0.28,0.56,1,.56a0.66,0.66,0,0,0,.56-0.11c1.56-5.25,3.74-9,6.59-11.51h0Zm87.58-3.63A20.08,20.08,0,0,0,154,535.24a26.54,26.54,0,0,0-12.23,3.13,49.66,49.66,0,0,0-12.4,10c0-4-.39-7-1.28-9.22s-2-3.18-3.41-3.18l-1.12.28-14.69,7a0.67,0.67,0,0,0-.34.95,0.78,0.78,0,0,0,.78.61h0.28a18.52,18.52,0,0,1,7.82-2.12,4.24,4.24,0,0,1,4.13,2.29c0.78,1.51,1.12,4,1.12,7.54v67.25A21.23,21.23,0,0,1,122,626a4.73,4.73,0,0,1-2.68,2.79,17,17,0,0,1-5.86.78c-0.34,0-.45.28-0.45,0.84s0.11,0.84.45,0.84c2.18,0,3.85,0,5.08-.11l7.71-.17,10.28,0.17c1.79,0.11,4.3.11,7.54,0.11,0.17,0,.28-0.28.28-0.84s-0.11-.84-0.28-0.84a41.17,41.17,0,0,1-9.38-.78,6.27,6.27,0,0,1-4.13-2.79c-0.78-1.34-1.17-3.41-1.17-6.26V589.42a25,25,0,0,0,7.43,3.52,31.93,31.93,0,0,0,8.38,1,30.23,30.23,0,0,0,13.68-3.63,31,31,0,0,0,12-10.95c3.24-4.91,4.86-10.89,4.86-17.87a31.5,31.5,0,0,0-2.9-14.07,22.07,22.07,0,0,0-7.93-9h0ZM159,588a14.91,14.91,0,0,1-9.1,3.07,25.37,25.37,0,0,1-11.62-2.4,30.94,30.94,0,0,1-8.94-7.15V550.66a46.67,46.67,0,0,1,9.5-7.93,19.2,19.2,0,0,1,10.05-2.79,16.53,16.53,0,0,1,13.57,6.87q5.36,6.79,5.36,19.1a35,35,0,0,1-2.35,13.35A20.07,20.07,0,0,1,159,588h0Zm83.89-50c0-.56-0.11-0.89-0.45-0.89a37.4,37.4,0,0,0-4.24.17l-5,.17-8.55-.17q-2-.17-5.86-0.17c-0.17,0-.28.33-0.28,0.89s0.11,0.84.28,0.84c4.19,0,7.15.39,8.88,1.12a4.19,4.19,0,0,1,2.68,4.13,15.28,15.28,0,0,1-1.17,5.14L217.1,584l-19.33-39.6a5,5,0,0,1-.61-2.18c0-2.29,2.85-3.41,8.54-3.41,0.22,0,.34-0.28.34-0.84s-0.11-.89-0.34-0.89q-3.52,0-5.53.17l-8.83.17-4.41-.17a42.45,42.45,0,0,0-4.41-.17c-0.22,0-.28.33-0.28,0.89s0.06,0.84.28,0.84a5.87,5.87,0,0,1,4.41,1.9,48.7,48.7,0,0,1,5,8.21l21.39,43.62c-3.35,8.83-6.2,15.64-8.66,20.5s-4.64,8.32-6.76,10.39a9.19,9.19,0,0,1-6.7,3.13,9.08,9.08,0,0,1-2.63-.33,9.56,9.56,0,0,1-2.35-1.23,11.43,11.43,0,0,0-5.86-1.68,4.25,4.25,0,0,0-2.68.95,3.24,3.24,0,0,0-1.12,2.57,4.49,4.49,0,0,0,2,4,8.54,8.54,0,0,0,4.86,1.34,20.36,20.36,0,0,0,11.56-3.35c3.3-2.23,6.48-5.92,9.61-11.11a146.71,146.71,0,0,0,9.89-21.62l17.82-47.42c1.34-3.69,2.79-6.26,4.41-7.71a8.65,8.65,0,0,1,5.81-2.12c0.34,0,.45-0.28.45-0.84h0Zm46.81,44.29A21.16,21.16,0,0,0,278,578.42a24.73,24.73,0,0,0,11.9-9.66,26.36,26.36,0,0,0,4.3-14.41,19.12,19.12,0,0,0-5.2-13.63c-3.46-3.63-8.27-5.47-14.47-5.47a38.5,38.5,0,0,0-11.79,2.29,22.26,22.26,0,0,1-4.58,1.12,2.36,2.36,0,0,1-1.62-.61,2.44,2.44,0,0,1-.78-2.07,6,6,0,0,1,.28-1.56c0.11-.11,0-0.22-0.28-0.33a1.63,1.63,0,0,0-.89-0.22c-0.34,0-.56.06-0.56,0.28L249,554.91c-0.11.39,0.22,0.56,1,.56,0.34,0,.56,0,0.56-0.11,1.68-6,4.13-10.33,7.26-13.13a17.57,17.57,0,0,1,12-4.13c5.64,0,9.77,1.68,12.45,5.08s4.08,8.1,4.08,14.19c0,6.65-1.79,11.79-5.36,15.53s-9.66,5.53-18.27,5.53a0.62,0.62,0,0,0-.73.84c0.11,0.61.33,0.89,0.73,0.89q28.07,0,28,24.91c0,7-1.34,12.9-4.13,17.65s-7,7.15-12.79,7.15c-3.8,0-6.81-.78-9-2.29a30.08,30.08,0,0,1-6.48-6.14c-1.45-1.56-2.57-2.74-3.35-3.41a4.29,4.29,0,0,0-2.79-1,4.06,4.06,0,0,0-2.57,1,3.41,3.41,0,0,0-1.12,2.9,7.69,7.69,0,0,0,2.68,5.59,20.21,20.21,0,0,0,7.48,4.13,36.11,36.11,0,0,0,10.89,1.56,32,32,0,0,0,15.69-3.8A27.36,27.36,0,0,0,295.85,618a29,29,0,0,0,3.74-14.8,29.38,29.38,0,0,0-2.46-11.84,22.65,22.65,0,0,0-7.43-9.1h0Zm92.94-40.77a25.74,25.74,0,0,0-12.51-4.41,39.92,39.92,0,0,0,14.52-13.52,32.89,32.89,0,0,0,5.86-18.49c0-10.84-5.64-16.25-17-16.25q-12.65,0-22.23,12t-9.55,47c0,11.11.95,20.05,2.74,26.75s4.52,11.67,8.27,14.75,8.6,4.63,14.63,4.63a27.36,27.36,0,0,0,14.69-3.74A24.11,24.11,0,0,0,391.36,580a32.13,32.13,0,0,0,3.13-14.24,31.22,31.22,0,0,0-3.13-14.07,26.13,26.13,0,0,0-8.71-10.17h0Zm-33.29-3Q350.62,491,370.42,491c4.58,0,8,1.73,10.33,5.2s3.46,7.88,3.46,13.18a29.79,29.79,0,0,1-3.69,14.47,28.45,28.45,0,0,1-10.39,10.84,28.75,28.75,0,0,1-15.08,4c-2.57,0-4.47,0-5.7-.11h0ZM384.1,586c-2.85,3.52-7.15,5.31-12.85,5.31-5,0-9.1-1.4-12.29-4.25s-5.59-7.59-7.2-14.52-2.4-16.31-2.4-28.26v-3.13c1.29-.11,3.24-0.17,5.81-0.17,10.56,0,18.71,2.57,24.52,7.71s8.66,12.4,8.66,21.78c0,6.87-1.4,12-4.24,15.53h0ZM498,591.27c0-.62-0.22-0.9-0.67-0.9a9,9,0,0,1-5.14-1.34,14.25,14.25,0,0,1-4-4.75c-1.29-2.29-3.24-6.2-5.81-11.67L464.75,535a0.73,0.73,0,0,0-.78-0.56,0.94,0.94,0,0,0-.95.56l-16.36,38.32c-3,6.65-5.36,11.17-7.26,13.57s-3.74,3.52-5.42,3.52c-0.39,0-.61.28-0.61,0.9s0.22,0.84.61,0.84c1.29,0,2.85-.11,4.53-0.28a48.54,48.54,0,0,1,5.7-.28,52.29,52.29,0,0,1,5.7.28c1.73,0.17,3.13.28,4.13,0.28a0.69,0.69,0,0,0,.73-0.84c0-.62-0.22-0.9-0.73-0.9-4.47,0-6.7-2-6.7-6.09,0-2.51.89-5.7,2.57-9.72l12-28.32,15.92,33.9a12.47,12.47,0,0,1,1.45,5.25,4.4,4.4,0,0,1-1.68,3.8,6.6,6.6,0,0,1-4,1.17c-0.39,0-.56.28-0.56,0.9s0.17,0.84.56,0.84c0.95,0,2.74-.11,5.42-0.28,2.46-.22,4.3-0.28,5.53-0.28,1.45,0,3.57.06,6.42,0.28s5,0.28,6.42.28a0.68,0.68,0,0,0,.67-0.84h0Zm76.63-52.11a23.59,23.59,0,0,0-13.35-3.91,28.6,28.6,0,0,0-13.24,3.24A28,28,0,0,0,537.3,548a28.7,28.7,0,0,0-4.75,15.3H517.87v-73.5a0.83,0.83,0,0,0-.33-0.73,1,1,0,0,0-.67-0.28l-0.73.11L499,497.38a0.55,0.55,0,0,0-.33.84,0.82,0.82,0,0,0,.78.73h0.28c3-1.45,5.25-2.12,6.87-2.12a3.54,3.54,0,0,1,3.52,2.23c0.67,1.56,1,4.08,1,7.6v73.89a20.2,20.2,0,0,1-.73,6.37,4.16,4.16,0,0,1-2.57,2.79,18.93,18.93,0,0,1-6,.67c-0.28,0-.39.28-0.39,0.9s0.11,0.84.39,0.84c2.18,0,3.91-.06,5.14-0.17l7.54-.11,7.43,0.11c1.34,0.11,3.07.17,5.25,0.17,0.22,0,.28-0.28.28-0.84s-0.06-.9-0.28-0.9a19.82,19.82,0,0,1-6-.67,4.23,4.23,0,0,1-2.62-2.79,20.19,20.19,0,0,1-.73-6.37V565.91h14.69a31.83,31.83,0,0,0,3.35,14.24,25.21,25.21,0,0,0,8.88,10.11A23.82,23.82,0,0,0,558,593.95a27.53,27.53,0,0,0,14.24-3.85,27.94,27.94,0,0,0,10.44-10.73,31.63,31.63,0,0,0,3.8-15.64,33.08,33.08,0,0,0-3-14.13,26,26,0,0,0-8.82-10.44h0ZM574,585.35a14.06,14.06,0,0,1-12,6,17.06,17.06,0,0,1-11.17-4,26.21,26.21,0,0,1-7.65-11.12,44.37,44.37,0,0,1-2.68-15.75c0-7,1.4-12.57,4.19-16.53s6.81-6,12-6a17.87,17.87,0,0,1,11.06,3.63A23.86,23.86,0,0,1,575.57,552a40.82,40.82,0,0,1,2.85,15.86c0,7.6-1.45,13.46-4.41,17.48h0Zm68-44.24c-4.15-2.74-9.45-4.13-15.87-4.13-4.18,0-8.88,1.17-14.13,3.58s-9,6.76-11.56,13.24c1.06-12.29,3.85-21.73,8.44-28.43S620,513.63,628.4,510.17l2.74-1.12a71.21,71.21,0,0,0,9.38-4.36,18.93,18.93,0,0,0,5.81-5.53,28.31,28.31,0,0,0,3.73-10.05c0.23-.28.07-0.5-0.5-0.67s-0.83,0-.88.39a16.93,16.93,0,0,1-6.09,7.54A56.86,56.86,0,0,1,632,501.51l-3.12,1.29a50.62,50.62,0,0,0-16.93,10.61c-4.47,4.3-7.93,10.16-10.44,17.59s-3.69,16.87-3.69,28.32c0,7.88,1.23,14.41,3.63,19.6s5.59,9,9.5,11.39a23.56,23.56,0,0,0,12.68,3.63,32.08,32.08,0,0,0,15-3.63A27.37,27.37,0,0,0,649.56,580a29.24,29.24,0,0,0,4.08-15.64,31.37,31.37,0,0,0-2.72-12.9A23.53,23.53,0,0,0,642,541.11h0Zm-1.35,44.63c-3.23,3.8-7.6,5.64-13.11,5.64-6.77,0-12-2.62-15.59-8s-5.47-12-5.47-20.05a29.72,29.72,0,0,1,4.75-17,15,15,0,0,1,13.17-7.09A17.34,17.34,0,0,1,635.5,543a24.18,24.18,0,0,1,7.37,10.39,39.36,39.36,0,0,1,2.62,14.74c0,8-1.56,13.85-4.8,17.59h0ZM720.44,538c0-.56-0.1-0.89-0.38-0.89a37.84,37.84,0,0,0-4.3.17l-5,.17-8.53-.17c-1.35-.11-3.3-0.17-5.86-0.17-0.17,0-.28.33-0.28,0.89s0.1,0.84.28,0.84c4.18,0,7.15.39,8.93,1.12a4.21,4.21,0,0,1,2.62,4.13,15.26,15.26,0,0,1-1.16,5.14L694.65,584l-19.32-39.6a4.9,4.9,0,0,1-.62-2.18c0-2.29,2.86-3.41,8.55-3.41,0.23,0,.33-0.28.33-0.84s-0.1-.89-0.33-0.89c-2.34,0-4.2.06-5.53,0.17l-8.83.17-4.41-.17a42.5,42.5,0,0,0-4.41-.17c-0.23,0-.28.33-0.28,0.89s0.05,0.84.28,0.84a5.86,5.86,0,0,1,4.41,1.9,49.52,49.52,0,0,1,5,8.21l21.39,43.62c-3.35,8.83-6.21,15.64-8.66,20.5s-4.63,8.32-6.77,10.39a9.12,9.12,0,0,1-9.33,2.79,9.7,9.7,0,0,1-2.34-1.23,11.39,11.39,0,0,0-5.86-1.68,4.22,4.22,0,0,0-2.67.95,3.2,3.2,0,0,0-1.13,2.57,4.51,4.51,0,0,0,2,4,8.55,8.55,0,0,0,4.86,1.34,20.33,20.33,0,0,0,11.55-3.35c3.3-2.23,6.49-5.92,9.61-11.11A147.23,147.23,0,0,0,692,596.07l17.81-47.42c1.35-3.69,2.79-6.26,4.42-7.71a8.68,8.68,0,0,1,5.86-2.12c0.28,0,.38-0.28.38-0.84h0Zm77.31,1.17a23.48,23.48,0,0,0-13.36-3.91,28.92,28.92,0,0,0-13.24,3.24A28.1,28.1,0,0,0,760.44,548a28.63,28.63,0,0,0-4.8,15.3H740.95v-73.5a0.82,0.82,0,0,0-.33-0.73,0.87,0.87,0,0,0-.62-0.28l-0.73.11-17.09,8.43c-0.38.06-.5,0.39-0.38,0.84a0.84,0.84,0,0,0,.78.73h0.33a16.6,16.6,0,0,1,6.82-2.12,3.56,3.56,0,0,1,3.57,2.23c0.68,1.56,1,4.08,1,7.6v73.89a21.86,21.86,0,0,1-.73,6.37A4.41,4.41,0,0,1,731,589.7a19.21,19.21,0,0,1-6,.67c-0.28,0-.43.28-0.43,0.9s0.16,0.84.43,0.84c2.19,0,3.92-.06,5.15-0.17l7.53-.11,7.37,0.11c1.35,0.11,3.14.17,5.31,0.17,0.17,0,.28-0.28.28-0.84s-0.1-.9-0.28-0.9a20.21,20.21,0,0,1-6.09-.67,4.36,4.36,0,0,1-2.62-2.79,21.86,21.86,0,0,1-.73-6.37V565.91h14.69A33.37,33.37,0,0,0,759,580.15a25.28,25.28,0,0,0,8.93,10.11,23.85,23.85,0,0,0,13.24,3.69,27.49,27.49,0,0,0,14.24-3.85,28.09,28.09,0,0,0,10.39-10.73,31.69,31.69,0,0,0,3.87-15.64,32.1,32.1,0,0,0-3.09-14.13,25,25,0,0,0-8.81-10.44h0Zm-0.68,46.19a14,14,0,0,1-12,6,17.18,17.18,0,0,1-11.17-4,26.12,26.12,0,0,1-7.6-11.12,43.28,43.28,0,0,1-2.74-15.75c0-7,1.41-12.57,4.2-16.53s6.82-6,12.06-6a18,18,0,0,1,11.07,3.63A24.17,24.17,0,0,1,798.69,552a40.65,40.65,0,0,1,2.86,15.86c0,7.6-1.51,13.46-4.48,17.48h0Zm156.72,5.92c0-.62-0.1-0.9-0.38-0.9a20,20,0,0,1-6.09-.67,4.19,4.19,0,0,1-2.58-2.79,25.71,25.71,0,0,1-.61-6.37V553c0-5.81-1.34-10.16-4-13s-6.47-4.24-11.5-4.24a22,22,0,0,0-10.84,3,39,39,0,0,0-10.67,9.72,15,15,0,0,0-4.91-9.5c-2.62-2.12-6.09-3.18-10.34-3.18a21.91,21.91,0,0,0-10.72,2.85,37.8,37.8,0,0,0-10.39,9.27v-0.56a20.51,20.51,0,0,0-1.39-8.21c-1-2.12-1.86-3.24-2.57-3.24a1.33,1.33,0,0,0-.73.17l-15.82,7.43a0.62,0.62,0,0,0-.33.89,0.79,0.79,0,0,0,.78.67H851c3.8-1.45,6.44-2.18,7.94-2.18a4.17,4.17,0,0,1,4,2.18c0.73,1.4,1.13,3.8,1.13,7.09v28.48a22.22,22.22,0,0,1-.68,6.37,4.41,4.41,0,0,1-2.57,2.79,19.21,19.21,0,0,1-6,.67c-0.33,0-.43.28-0.43,0.9s0.1,0.84.43,0.84c2.19,0,3.87-.06,5.08-0.17l7.6-.11,7.37,0.11c1.23,0.11,3,.17,5.15.17,0.28,0,.43-0.28.43-0.84s-0.16-.9-0.43-0.9a19.82,19.82,0,0,1-6-.67,4,4,0,0,1-2.57-2.79,22.22,22.22,0,0,1-.68-6.37V550.21a30,30,0,0,1,8.43-7.26,17.93,17.93,0,0,1,9-2.57c4.28,0,7.42,1.4,9.49,4.13s3.07,7,3.07,12.85v23.18a20.18,20.18,0,0,1-.73,6.37,4.29,4.29,0,0,1-2.57,2.79,19.21,19.21,0,0,1-6,.67c-0.28,0-.43.28-0.43,0.9s0.16,0.84.43,0.84c2.19,0,3.92-.06,5.15-0.17l7.53-.11,7.44,0.11c1.28,0.11,3.07.17,5.24,0.17,0.17,0,.28-0.28.28-0.84s-0.1-.9-0.28-0.9a19.77,19.77,0,0,1-6-.67,4.46,4.46,0,0,1-2.69-2.79,22.21,22.21,0,0,1-.68-6.37V553a13.47,13.47,0,0,0-.16-2.57,31.59,31.59,0,0,1,8.48-7.37,18.4,18.4,0,0,1,9.05-2.63c4.35,0,7.6,1.4,9.61,4.13s3.07,7,3.07,12.85v23.18a20.18,20.18,0,0,1-.73,6.37,4.22,4.22,0,0,1-2.64,2.79,19.7,19.7,0,0,1-6,.67c-0.23,0-.35.28-0.35,0.9s0.12,0.84.35,0.84c2.17,0,3.9-.06,5.24-0.17l7.44-.11,7.53,0.11c1.23,0.11,2.91.17,5.15,0.17,0.28,0,.38-0.28.38-0.84h0Zm21.11-1.4a25.58,25.58,0,0,0,14.36,4.08,31.53,31.53,0,0,0,15-3.58,26.7,26.7,0,0,0,10.89-10.22,29.28,29.28,0,0,0,4.08-15.53,32,32,0,0,0-3.37-14.35,28,28,0,0,0-9.54-10.89,25.55,25.55,0,0,0-14.47-4.13,33,33,0,0,0-14.19,3.24,28.35,28.35,0,0,0-11.4,9.66q-4.45,6.45-4.46,15.75a33.16,33.16,0,0,0,3.4,15,26.84,26.84,0,0,0,9.71,10.95h0Zm31.34-4c-3.14,3.69-7.49,5.53-13,5.53A18.48,18.48,0,0,1,981.17,587a28.69,28.69,0,0,1-8.27-11.5,40.37,40.37,0,0,1-3-15.75c0-7,1.58-12.4,4.58-16.2s7.27-5.59,12.68-5.59a20.63,20.63,0,0,1,12.4,4,26.36,26.36,0,0,1,8.43,10.89,39.28,39.28,0,0,1,3,15.47c0,8-1.56,13.8-4.68,17.54h0Zm74.78,5.42c0-.62-0.17-0.9-0.45-0.9a19.7,19.7,0,0,1-6-.67,4.15,4.15,0,0,1-2.58-2.79,23.41,23.41,0,0,1-.61-6.37V536.81a0.8,0.8,0,0,0-.45-0.67,1.34,1.34,0,0,0-.83-0.33l-0.45.17-15,6.7a0.54,0.54,0,0,0-.33.84,0.72,0.72,0,0,0,.61.73h0.28a19.79,19.79,0,0,1,5.31-1.45,3.29,3.29,0,0,1,3.19,2.51,26.69,26.69,0,0,1,1,8.32V563.9a27.47,27.47,0,0,1-6.59,3.41,21.47,21.47,0,0,1-7.27,1.29,10.13,10.13,0,0,1-8.15-3.63c-2.06-2.4-3.07-5.92-3.07-10.44V536.81a0.74,0.74,0,0,0-.4-0.67,1.11,1.11,0,0,0-.78-0.33L1038,536l-14.87,6.7a0.61,0.61,0,0,0-.38.84,0.73,0.73,0,0,0,.73.73h0.28a19.37,19.37,0,0,1,5.24-1.45c1.63,0,2.69,1.28,3.3,3.85a55.26,55.26,0,0,1,.85,11c0,5,1.11,8.88,3.35,11.51s5.53,4,9.89,4c6.47,0,12.56-2.35,18.27-7v14.35a22.47,22.47,0,0,1-.73,6.37,4.41,4.41,0,0,1-2.74,2.79,20.22,20.22,0,0,1-6.09.67c-0.23,0-.28.28-0.28,0.9s0.05,0.84.28,0.84c2.34,0,4.25-.06,5.69-0.17l7.27-.11,7.09,0.11c1.34,0.11,3.17.17,5.41,0.17,0.28,0,.45-0.28.45-0.84h0Zm67.7,0c0-.62-0.17-0.9-0.45-0.9-3.35-.06-5.93-0.89-7.77-2.46a47.92,47.92,0,0,1-6.92-8.21c-0.45-.56-1-1.23-1.4-1.9s-1-1.45-1.56-2.23l-2.45-3.13a84.75,84.75,0,0,0-5.93-7.26,9.91,9.91,0,0,0-4.18-2.74q2.19-1.68,4.68-6.37a100.31,100.31,0,0,1,5.53-8.77c1.84-2.62,3.3-3.91,4.3-3.91a5,5,0,0,1,2.29.89,6.3,6.3,0,0,0,3.12,1,5.07,5.07,0,0,0,3.75-1.45,4.59,4.59,0,0,0,1.41-3.41,4,4,0,0,0-1.58-3.18,6.62,6.62,0,0,0-4.41-1.4,8.8,8.8,0,0,0-5.36,1.73,16.88,16.88,0,0,0-3.9,4.47c-1.13,1.9-2.64,4.64-4.53,8.38l-2.57,5.08a20.23,20.23,0,0,1-3.47,4.86,5.1,5.1,0,0,1-3.8,1.73c-2.57,0-5.69.11-9.44,0.39V489.84a0.86,0.86,0,0,0-.33-0.73,0.9,0.9,0,0,0-.68-0.28l-0.68.11-17.09,8.43c-0.4.06-.5,0.39-0.4,0.84a0.83,0.83,0,0,0,.78.73H1086c2.95-1.45,5.24-2.12,6.87-2.12a3.62,3.62,0,0,1,3.57,2.23,22.59,22.59,0,0,1,.94,7.6v73.89a22.72,22.72,0,0,1-.61,6.37,4.17,4.17,0,0,1-2.57,2.79,20.59,20.59,0,0,1-6.21.67c-0.28,0-.43.28-0.43,0.9s0.16,0.84.43,0.84c2.41,0,4.25-.06,5.6-0.17l7.37-.11,7,0.11c1.34,0.11,3.19.17,5.59,0.17,0.17,0,.28-0.28.28-0.84s-0.1-.9-0.28-0.9a20,20,0,0,1-6.09-.67,4.36,4.36,0,0,1-2.62-2.79,21.86,21.86,0,0,1-.73-6.37V565l3-.11a12,12,0,0,1,5.52,1.06,13.41,13.41,0,0,1,4.25,3.58c1.34,1.62,3.63,4.64,6.76,8.88,2.62,3.69,4.46,6.48,5.53,8.32s1.84,3.24,2.29,4.08a2.07,2.07,0,0,0,1.56,1.29h15.25c0.28,0,.45-0.28.45-0.84h0Zm62.1-53.28c0-.56-0.17-0.89-0.45-0.89a36.4,36.4,0,0,0-4.23.17l-5,.17-8.55-.17c-1.34-.11-3.24-0.17-5.81-0.17-0.23,0-.28.33-0.28,0.89s0.05,0.84.28,0.84c4.2,0,7.15.39,8.88,1.12a4.15,4.15,0,0,1,2.64,4.13,16.46,16.46,0,0,1-1.13,5.14L1185,584l-19.38-39.6a5,5,0,0,1-.55-2.18c0-2.29,2.84-3.41,8.55-3.41,0.16,0,.28-0.28.28-0.84a0.86,0.86,0,0,0-.28-0.89c-2.36,0-4.25.06-5.53,0.17l-8.88.17-4.41-.17a42,42,0,0,0-4.42-.17c-0.17,0-.28.33-0.28,0.89s0.1,0.84.28,0.84a5.74,5.74,0,0,1,4.42,1.9c1.16,1.28,2.79,4,5,8.21l21.34,43.62c-3.3,8.83-6.19,15.64-8.6,20.5s-4.68,8.32-6.75,10.39a9.39,9.39,0,0,1-6.71,3.13,8.56,8.56,0,0,1-2.62-.33,9.39,9.39,0,0,1-2.34-1.23,11.44,11.44,0,0,0-5.86-1.68,4.06,4.06,0,0,0-2.69.95,3.28,3.28,0,0,0-1.16,2.57,4.51,4.51,0,0,0,2,4,8.51,8.51,0,0,0,4.86,1.34,20,20,0,0,0,11.5-3.35c3.35-2.23,6.54-5.92,9.61-11.11s6.42-12.4,9.94-21.62l17.76-47.42c1.34-3.69,2.84-6.26,4.46-7.71a8.49,8.49,0,0,1,5.81-2.12c0.28,0,.45-0.28.45-0.84h0Zm51.5,51.78c4.13,2.68,9.21,4.08,15.3,4.08a28.84,28.84,0,0,0,10.84-2,34.65,34.65,0,0,0,9.82-6.26,0.44,0.44,0,0,0,.07-0.73,1.05,1.05,0,0,0-.78-0.45h-0.29c-3.68,3.35-8.59,5-14.68,5-8,0-14.14-2.68-18.21-7.93s-6.14-11.9-6.14-19.88c0-7,1.56-12.62,4.63-16.76s7.48-6.2,13.18-6.2a14.15,14.15,0,0,1,6.64,1.4,12.8,12.8,0,0,1,4.3,4c1.61,2.68,3.52,4,5.69,4a3.85,3.85,0,0,0,3-1.23,4,4,0,0,0,1.13-2.91c0-2.18-1.68-4.08-5-5.7a25.61,25.61,0,0,0-11.17-2.46,30.72,30.72,0,0,0-14.47,3.69,30.32,30.32,0,0,0-11.57,10.39,28.2,28.2,0,0,0-4.46,15.86,31.94,31.94,0,0,0,3,13.52,25.18,25.18,0,0,0,9.21,10.5h0Zm146.11,1.51c0-.62-0.17-0.9-0.45-0.9a19.77,19.77,0,0,1-6-.67,4,4,0,0,1-2.58-2.79,23,23,0,0,1-.66-6.37V553c0-5.81-1.35-10.16-4-13s-6.54-4.24-11.55-4.24a22.14,22.14,0,0,0-10.84,3c-3.52,2-7,5.25-10.67,9.72-0.68-4.19-2.29-7.32-4.91-9.5s-6-3.18-10.34-3.18a21.62,21.62,0,0,0-10.67,2.85,37.08,37.08,0,0,0-10.39,9.27v-0.56a20.12,20.12,0,0,0-1.46-8.21c-0.94-2.12-1.79-3.24-2.57-3.24a1.56,1.56,0,0,0-.73.17l-15.8,7.43a0.62,0.62,0,0,0-.33.89,0.76,0.76,0,0,0,.78.67h0.28c3.8-1.45,6.47-2.18,8-2.18a4.05,4.05,0,0,1,4,2.18c0.78,1.4,1.18,3.8,1.18,7.09v28.48a21.87,21.87,0,0,1-.73,6.37,4.42,4.42,0,0,1-2.57,2.79,19.21,19.21,0,0,1-6,.67c-0.28,0-.45.28-0.45,0.9s0.17,0.84.45,0.84c2.19,0,3.92-.06,5.13-0.17l7.55-.11,7.42,0.11c1.23,0.11,2.91.17,5.08,0.17,0.28,0,.45-0.28.45-0.84s-0.17-.9-0.45-0.9a19.77,19.77,0,0,1-6-.67,4.19,4.19,0,0,1-2.58-2.79,23.41,23.41,0,0,1-.61-6.37V550.21a29.79,29.79,0,0,1,8.38-7.26,18,18,0,0,1,9-2.57c4.25,0,7.44,1.4,9.45,4.13s3.07,7,3.07,12.85v23.18a20.19,20.19,0,0,1-.73,6.37,4.22,4.22,0,0,1-2.52,2.79,19.59,19.59,0,0,1-6,.67c-0.28,0-.38.28-0.38,0.9s0.1,0.84.38,0.84c2.24,0,3.92-.06,5.13-0.17l7.55-.11,7.42,0.11c1.35,0.11,3.07.17,5.26,0.17,0.23,0,.33-0.28.33-0.84s-0.1-.9-0.33-0.9a19.82,19.82,0,0,1-6-.67,4.24,4.24,0,0,1-2.62-2.79,20.18,20.18,0,0,1-.73-6.37V553a24.26,24.26,0,0,0-.1-2.57,30.64,30.64,0,0,1,8.43-7.37,18.7,18.7,0,0,1,9-2.63c4.37,0,7.6,1.4,9.61,4.13s3.07,7,3.07,12.85v23.18a22.34,22.34,0,0,1-.66,6.37,4.46,4.46,0,0,1-2.69,2.79,19.82,19.82,0,0,1-6,.67c-0.16,0-.28.28-0.28,0.9s0.12,0.84.28,0.84c2.19,0,3.92-.06,5.26-0.17l7.42-.11,7.55,0.11c1.23,0.11,3,.17,5.13.17,0.28,0,.45-0.28.45-0.84h0Zm58.82-52.89a20.11,20.11,0,0,0-10.84-3.13,26.14,26.14,0,0,0-12.23,3.13,47.8,47.8,0,0,0-12.4,10,26.67,26.67,0,0,0-1.28-9.22c-0.83-2.12-2-3.18-3.42-3.18l-1.16.28-14.64,7a0.74,0.74,0,0,0-.38.95,0.8,0.8,0,0,0,.78.61H1412a19,19,0,0,1,7.88-2.12A4.27,4.27,0,0,1,1424,545c0.73,1.51,1.13,4,1.13,7.54v67.25a19.15,19.15,0,0,1-.73,6.26,4.52,4.52,0,0,1-2.64,2.79,17,17,0,0,1-5.92.78c-0.28,0-.38.28-0.38,0.84s0.1,0.84.38,0.84c2.19,0,3.9,0,5.13-.11l7.72-.17,10.22,0.17c1.84,0.11,4.35.11,7.6,0.11,0.16,0,.28-0.28.28-0.84s-0.12-.84-0.28-0.84a42.06,42.06,0,0,1-9.44-.78,6.57,6.57,0,0,1-4.15-2.79,13.78,13.78,0,0,1-1.11-6.26V589.42a24.35,24.35,0,0,0,7.42,3.52,32,32,0,0,0,8.38,1,30.44,30.44,0,0,0,13.69-3.63,31.42,31.42,0,0,0,12-10.95c3.24-4.91,4.86-10.89,4.86-17.87a32.39,32.39,0,0,0-2.9-14.07,22.12,22.12,0,0,0-7.93-9h0ZM1461.39,588a14.62,14.62,0,0,1-9.09,3.07,25.51,25.51,0,0,1-11.62-2.4,30,30,0,0,1-8.88-7.15V550.66a45.42,45.42,0,0,1,9.49-7.93,19.19,19.19,0,0,1,10-2.79,16.55,16.55,0,0,1,13.62,6.87q5.36,6.79,5.36,19.1a35,35,0,0,1-2.34,13.35,20,20,0,0,1-6.54,8.77h0Zm91.22-3.91h-0.29c-1.61.56-3.12,1.06-4.51,1.51a11.16,11.16,0,0,1-3.47.61,4.33,4.33,0,0,1-4.08-2.18c-0.78-1.45-1.18-3.85-1.18-7V536.25c0-.17-0.21-0.28-0.61-0.33a0.79,0.79,0,0,0-.68.06,7.91,7.91,0,0,1-3.45,3.69,25.06,25.06,0,0,0-6.49-3.18,22.55,22.55,0,0,0-7.48-1.23,29.38,29.38,0,0,0-14.31,4.13,35,35,0,0,0-12.18,11.9,33.41,33.41,0,0,0-4.86,18c0,7.6,2,13.52,5.86,17.71a18.93,18.93,0,0,0,14.54,6.37,23.22,23.22,0,0,0,12.33-3.41,47,47,0,0,0,10.72-9.16,23.77,23.77,0,0,0,1.41,8.77c0.88,2.46,1.73,3.63,2.62,3.63l0.55-.11,15.82-7.54a0.6,0.6,0,0,0,.43-0.78,0.71,0.71,0,0,0-.71-0.67h0Zm-20.12-5.53c-6.64,7.2-13,10.83-18.92,10.83a13.59,13.59,0,0,1-12-6.7c-3-4.47-4.42-10.28-4.42-17.43,0-8,1.79-14.63,5.48-19.72s8.38-7.6,14.19-7.6a18.46,18.46,0,0,1,10.84,3.46c3.17,2.35,4.79,5.2,4.79,8.66v28.49h0Zm89.77,12.68c0-.62-0.05-0.9-0.28-0.9a20.59,20.59,0,0,1-6.21-.67,4.17,4.17,0,0,1-2.57-2.79,25.72,25.72,0,0,1-.61-6.37V536.81a0.8,0.8,0,0,0-.45-0.67,1.2,1.2,0,0,0-.73-0.33l-0.55.17-15,6.7a0.56,0.56,0,0,0-.33.84,0.8,0.8,0,0,0,.78.73h0.28a16.57,16.57,0,0,1,5.13-1.45,3.29,3.29,0,0,1,3.19,2.51,26.81,26.81,0,0,1,.94,8.32v9.72h-31.6V536.81a0.8,0.8,0,0,0-.45-0.67,1.2,1.2,0,0,0-.73-0.33l-0.56.17-15,6.7a0.54,0.54,0,0,0-.33.84,0.77,0.77,0,0,0,.78.73h0.28a16.21,16.21,0,0,1,5.13-1.45,3.29,3.29,0,0,1,3.19,2.51,26.69,26.69,0,0,1,1,8.32v26.92a22.21,22.21,0,0,1-.68,6.37,4.05,4.05,0,0,1-2.57,2.79,20.59,20.59,0,0,1-6.21.67c-0.28,0-.38.28-0.38,0.9s0.1,0.84.38,0.84c2.41,0,4.25-.06,5.59-0.17l7.44-.11,7,0.11c1.28,0.11,3.12.17,5.53,0.17,0.17,0,.28-0.28.28-0.84s-0.1-.9-0.28-0.9a20.67,20.67,0,0,1-6.21-.67,4.17,4.17,0,0,1-2.57-2.79,23.41,23.41,0,0,1-.61-6.37V565.91h31.6v14.63a20.83,20.83,0,0,1-.71,6.37,4.26,4.26,0,0,1-2.64,2.79,19.83,19.83,0,0,1-6,.67c-0.33,0-.43.28-0.43,0.9s0.1,0.84.43,0.84c2.24,0,4.08-.06,5.38-0.17l7.58-.11,7,0.11c1.28,0.11,3.17.17,5.53,0.17,0.23,0,.28-0.28.28-0.84h0ZM1676.55,575q0-15.08-18.94-15.08a45.74,45.74,0,0,0-14.52,2.23V536.81a0.8,0.8,0,0,0-.45-0.67,1.2,1.2,0,0,0-.73-0.33l-0.55.17-15,6.7a0.54,0.54,0,0,0-.33.84,0.77,0.77,0,0,0,.78.73h0.28a16.21,16.21,0,0,1,5.13-1.45,3.29,3.29,0,0,1,3.19,2.51,26.8,26.8,0,0,1,.94,8.32v26.81c0,4.36,1.51,7.71,4.48,10.05s7.37,3.46,13.18,3.46c6.92,0,12.4-1.68,16.48-5s6-8,6-14h0Zm33.89,16.25c0-.62-0.1-0.9-0.45-0.9a19.9,19.9,0,0,1-6-.67,4.17,4.17,0,0,1-2.57-2.79,25.72,25.72,0,0,1-.61-6.37v-27c0-4.19.05-7.88,0.1-11.06s0.17-5,.17-5.64a0.73,0.73,0,0,0-.38-0.67,1,1,0,0,0-.62-0.33l-0.55.17-17.71,8.27a0.73,0.73,0,0,0-.28,1,1.06,1.06,0,0,0,.9.73h0.1c2.79-1.45,5-2.18,6.87-2.18a3.75,3.75,0,0,1,3.63,2.29c0.68,1.51,1.08,4,1.08,7.54v26.92a20.18,20.18,0,0,1-.73,6.37,4.26,4.26,0,0,1-2.64,2.79,20,20,0,0,1-6.09.67c-0.16,0-.28.28-0.28,0.9s0.12,0.84.28,0.84c2.24,0,4-.06,5.31-0.17l7.37-.11,7.6,0.11c1.23,0.11,2.91.17,5.08,0.17,0.35,0,.45-0.28.45-0.84h0Zm-41.61-13.13c0,9.33-4.25,14-12.78,14s-13-4.92-13-14.69V564.07a25.06,25.06,0,0,1,9.66-1.73c5.59,0,9.71,1.45,12.23,4.36s3.85,6.7,3.85,11.45" transform="translate(869.96 35.27)"/>
  </g>
</svg>
